{
  "asset": {
    "version": "2.0"
  },
  "accessors": [
    {
      "bufferView": 0,
      "componentType": 5123,
      "type": "SCALAR",
      "count": 54663
    },
    {
      "bufferView": 1,
      "componentType": 5126,
      "type": "VEC3",
      "count": 16744,
      "min": [
        -263.67950439453125,
        -52.54267120361328,
        -247.67950439453125
      ],
      "max": [
        301.00665283203125,
        -12.730921745300293,
        283.6842346191406
      ]
    },
    {
      "bufferView": 2,
      "componentType": 5126,
      "type": "VEC2",
      "count": 16744,
      "min": [
        0.0000036914625525241718,
        0.00002443697849230375
      ],
      "max": [
        0.9998471736907959,
        0.9997884035110474
      ]
    }
  ],
  "bufferViews": [
    {
      "buffer": 0,
      "byteOffset": 0,
      "byteLength": 109326
    },
    {
      "buffer": 0,
      "byteOffset": 109326,
      "byteLength": 200928
    },
    {
      "buffer": 0,
      "byteOffset": 310254,
      "byteLength": 133952
    }
  ],
  "buffers": [
    {
      "uri": "extracted_model_data.bin",
      "byteLength": 444206
    }
  ],
  "meshes": [
    {
      "primitives": [
        {
          "attributes": {
            "POSITION": 1,
            "TEXCOORD_0": 2
          },
          "indices": 0,
          "material": 0,
          "mode": 4
        }
      ]
    }
  ],
  "scene": 0,
  "scenes": [
    {
      "nodes": [
        0
      ]
    }
  ],
  "materials": [
    {
      "pbrMetallicRoughness": {
        "baseColorTexture": {
          "index": 0,
          "texCoord": 0
        },
        "baseColorFactor": [
          1,
          1,
          1,
          1
        ],
        "metallicFactor": 1,
        "roughnessFactor": 1
      },
      "extensions": {
        "KHR_materials_unlit": {}
      },
      "emissiveFactor": [
        0,
        0,
        0
      ],
      "alphaMode": "OPAQUE",
      "doubleSided": false
    }
  ],
  "textures": [
    {
      "sampler": 0,
      "source": 0
    }
  ],
  "images": [
    {
      "name": "textureAtlas",
      "uri": "extracted_model_img0.jpg"
    }
  ],
  "samplers": [
    {
      "magFilter": 9729,
      "minFilter": 9729,
      "wrapS": 33071,
      "wrapT": 33071
    }
  ],
  "nodes": [
    {
      "mesh": 0
    }
  ],
  "extensionsUsed": [
    "KHR_materials_unlit"
  ],
  "extensionsRequired": [
    "KHR_materials_unlit"
  ]
}